<svg xmlns="http://www.w3.org/2000/svg" width="148.31mm" height="49.87mm" viewBox="0 0 420.39 141.36">
  <g>
    <g>
      <path d="M271.3,1.88h17.32V34.53L319.4,1.88H341L310.24,33,344,80.65H322.28L298.55,45.24l-9.93,10V80.65H271.3ZM208.44,54.5c0,10.48,8.16,14.57,17.43,14.57,6.07,0,15.33-1.77,15.33-9.82,0-8.5-11.8-9.93-23.39-13s-23.49-7.62-23.49-22.4C194.32,7.72,209.54,0,223.77,0c16.44,0,31.56,7.17,31.56,25.38H238.56C238,15.89,231.28,13.46,223,13.46c-5.51,0-11.92,2.32-11.92,8.94,0,6.07,3.76,6.84,23.51,11.91C240.32,35.75,258,39.39,258,57.26c0,14.46-11.36,25.27-32.76,25.27-17.43,0-33.76-8.61-33.54-28ZM139.7,50.2h20.41l-9.93-28.91H150Zm1.66-48.32h17.76l29.45,78.77h-18l-6-17.54H135.18L129,80.65H111.46Zm-62.73.31,0,58.94s0,19.81-19.65,19.81V51.47H19.65v9.81H49.12s0,19.66-19.72,19.66H0V51.31C0,31.66,19.65,31.66,19.65,31.66H49.12c9.82,0,9.8-9.71,9.8-9.71H.09S0,2.19,19.65,2.19Z"/>
      <path d="M381.67,68c15.55,0,21.4-13.24,21.4-26.36,0-13.8-5.85-27-21.4-27s-21.4,13.24-21.4,27c0,13.12,5.84,26.36,21.4,26.36m0-68c24.38,0,38.72,18.2,38.72,41.6,0,22.72-14.34,40.93-38.72,40.93S343,64.32,343,41.6C343,18.2,357.29,0,381.67,0"/>
    </g>
    <g>
      <path d="M1.84,133.51V105.79H4.46v27.72Z"/>
      <path d="M13.59,133.51H11.28V113.56h2.31v2.78A14.4,14.4,0,0,1,16.45,114,6.59,6.59,0,0,1,20,113a9.13,9.13,0,0,1,3.42.64,5.86,5.86,0,0,1,2.66,2.21,5.08,5.08,0,0,1,.87,2.22,22.44,22.44,0,0,1,.13,2.37v13H24.79v-13a6,6,0,0,0-1.19-4,5.08,5.08,0,0,0-4-1.35,5.56,5.56,0,0,0-2,.33,6.16,6.16,0,0,0-1.6.87,5.64,5.64,0,0,0-1.21,1.23,5.54,5.54,0,0,0-.77,1.46,7.35,7.35,0,0,0-.43,1.85c-.05.59-.07,1.23-.07,1.93Z"/>
      <path d="M34,127.27A5.91,5.91,0,0,0,36,130.91,6.65,6.65,0,0,0,40,132a7.09,7.09,0,0,0,2.19-.31,4.41,4.41,0,0,0,1.52-.83,3.71,3.71,0,0,0,.91-1.17,3.32,3.32,0,0,0,.31-1.39,2.54,2.54,0,0,0-1-2.17A7.05,7.05,0,0,0,41.61,125a29.37,29.37,0,0,0-3.08-.69,15.3,15.3,0,0,1-3.08-.87,6.1,6.1,0,0,1-2.36-1.65,4.49,4.49,0,0,1-1-3,5.21,5.21,0,0,1,1.83-4.1,7.66,7.66,0,0,1,5.18-1.6,8.87,8.87,0,0,1,5.26,1.45,6.61,6.61,0,0,1,2.44,4.83H44.5a4.3,4.3,0,0,0-1.75-3.25,6.52,6.52,0,0,0-3.64-1,5.18,5.18,0,0,0-3.35,1,3,3,0,0,0-1.15,2.48,2.41,2.41,0,0,0,.94,2.06,7.71,7.71,0,0,0,2.37,1.16c.95.29,2,.55,3.08.78a15.42,15.42,0,0,1,3.08,1,6.69,6.69,0,0,1,2.37,1.71,4.45,4.45,0,0,1,.94,3,5.06,5.06,0,0,1-.62,2.52,5.19,5.19,0,0,1-1.69,1.83,7.75,7.75,0,0,1-2.56,1.1,13.75,13.75,0,0,1-3.25.37,8.91,8.91,0,0,1-3.14-.52,6.82,6.82,0,0,1-2.33-1.45,6.61,6.61,0,0,1-1.5-2.15,7.56,7.56,0,0,1-.62-2.66Z"/>
      <path d="M54.51,141.36H52.2v-27.8h2.31v3.51h.08a6.57,6.57,0,0,1,1.29-1.73,7.39,7.39,0,0,1,1.73-1.28,10.14,10.14,0,0,1,2-.77,7.9,7.9,0,0,1,2-.27,9.49,9.49,0,0,1,4.12.81,7.64,7.64,0,0,1,2.79,2.22,9.05,9.05,0,0,1,1.6,3.33,16.44,16.44,0,0,1,.5,4.12,14.74,14.74,0,0,1-.54,4,10,10,0,0,1-1.64,3.37,8.11,8.11,0,0,1-2.77,2.31,8.46,8.46,0,0,1-3.95.87,9.2,9.2,0,0,1-4.06-1,7.23,7.23,0,0,1-3.06-2.79Zm0-17.75a11.34,11.34,0,0,0,.46,3.22,8.25,8.25,0,0,0,1.33,2.65,6.36,6.36,0,0,0,2.12,1.81,5.86,5.86,0,0,0,2.83.68,6.53,6.53,0,0,0,3.1-.71,6.17,6.17,0,0,0,2.17-1.95,8.38,8.38,0,0,0,1.24-2.87,13.32,13.32,0,0,0,.3-3.52,9.7,9.7,0,0,0-.52-3.33,6.87,6.87,0,0,0-1.44-2.44,6.18,6.18,0,0,0-2.16-1.53,7,7,0,0,0-2.69-.52,6.18,6.18,0,0,0-2.89.66,6.12,6.12,0,0,0-2.12,1.79A8.4,8.4,0,0,0,55,120.24,12.54,12.54,0,0,0,54.51,123.61Z"/>
      <path d="M75.69,109.21v-3.42h2.54v3.42Zm.11,24.3V113.56h2.31v19.95Z"/>
      <path d="M86.43,133.51H84.12V113.56h2.31v3.74h.07A6.72,6.72,0,0,1,89,114a7.52,7.52,0,0,1,4-1v2.51a6.73,6.73,0,0,0-3.23.61,5.35,5.35,0,0,0-2,1.77,7.06,7.06,0,0,0-1,2.64,16.5,16.5,0,0,0-.29,3.18Z"/>
      <path d="M98.25,124.07a11,11,0,0,0,.42,3.07,7.43,7.43,0,0,0,1.25,2.5,6,6,0,0,0,2.1,1.69A6.38,6.38,0,0,0,105,132a6.31,6.31,0,0,0,3.88-1.2,5.72,5.72,0,0,0,2.16-3.38h2.58a11.9,11.9,0,0,1-1.12,2.63,8.08,8.08,0,0,1-1.73,2.12,7.61,7.61,0,0,1-2.46,1.41,10.1,10.1,0,0,1-3.31.5,9.61,9.61,0,0,1-4.12-.81A7.69,7.69,0,0,1,98,131a9.21,9.21,0,0,1-1.66-3.31,14.94,14.94,0,0,1-.54-4.1,12.93,12.93,0,0,1,.64-4.12,10.4,10.4,0,0,1,1.81-3.37,8.51,8.51,0,0,1,2.87-2.27A8.68,8.68,0,0,1,105,113a7.93,7.93,0,0,1,6.46,2.84q2.36,2.82,2.31,8.21Zm13-1.92a9.42,9.42,0,0,0-.4-2.75,6.43,6.43,0,0,0-1.2-2.24,5.74,5.74,0,0,0-2-1.5,6.43,6.43,0,0,0-2.73-.56,6.15,6.15,0,0,0-2.72.58,6.34,6.34,0,0,0-2,1.54,7.76,7.76,0,0,0-1.33,2.23,10.45,10.45,0,0,0-.65,2.7Z"/>
      <path d="M133.63,105.79h2.31v27.72h-2.31V130h-.08a6.11,6.11,0,0,1-1.29,1.76,8.1,8.1,0,0,1-1.73,1.25,9.53,9.53,0,0,1-1.95.77,7.46,7.46,0,0,1-2,.27,9.49,9.49,0,0,1-4.12-.81,7.64,7.64,0,0,1-2.79-2.22,9.05,9.05,0,0,1-1.6-3.33,16.44,16.44,0,0,1-.5-4.12,14.74,14.74,0,0,1,.54-4,10,10,0,0,1,1.64-3.37,8.11,8.11,0,0,1,2.77-2.31,8.46,8.46,0,0,1,4-.87,9.2,9.2,0,0,1,4.06,1,7.23,7.23,0,0,1,3.06,2.79Zm0,17.67a11.34,11.34,0,0,0-.46-3.22,8.35,8.35,0,0,0-1.33-2.65,6.58,6.58,0,0,0-2.12-1.81,5.86,5.86,0,0,0-2.83-.68,6.37,6.37,0,0,0-3.12.72,6.07,6.07,0,0,0-2.15,1.94,8.38,8.38,0,0,0-1.24,2.87,13,13,0,0,0-.3,3.52,9.7,9.7,0,0,0,.52,3.33,7,7,0,0,0,1.44,2.45,6.28,6.28,0,0,0,2.16,1.52,6.93,6.93,0,0,0,2.69.52,6.18,6.18,0,0,0,2.89-.66,6.1,6.1,0,0,0,2.12-1.79,8.3,8.3,0,0,0,1.29-2.69A12.48,12.48,0,0,0,133.63,123.46Z"/>
      <path d="M155,133.51h-2.31V105.79H155v11a7.23,7.23,0,0,1,3.06-2.79,9.21,9.21,0,0,1,4.07-1,8.42,8.42,0,0,1,3.94.87,8.11,8.11,0,0,1,2.77,2.31,9.8,9.8,0,0,1,1.64,3.37,14.74,14.74,0,0,1,.54,4,16.44,16.44,0,0,1-.5,4.12A8.9,8.9,0,0,1,169,131a7.64,7.64,0,0,1-2.79,2.22,9.49,9.49,0,0,1-4.12.81,7.46,7.46,0,0,1-2-.27,9.53,9.53,0,0,1-2-.77,8.1,8.1,0,0,1-1.73-1.25,6.11,6.11,0,0,1-1.29-1.76H155Zm0-10a12.1,12.1,0,0,0,.45,3.37,7.91,7.91,0,0,0,1.29,2.69,6,6,0,0,0,2.11,1.79,6.18,6.18,0,0,0,2.89.66,7,7,0,0,0,2.7-.52,6.24,6.24,0,0,0,2.15-1.52,7.17,7.17,0,0,0,1.45-2.45,10,10,0,0,0,.52-3.33,13.35,13.35,0,0,0-.31-3.52,8.57,8.57,0,0,0-1.23-2.87,6.08,6.08,0,0,0-2.18-1.94,6.39,6.39,0,0,0-3.1-.72,5.89,5.89,0,0,0-2.83.68,6.58,6.58,0,0,0-2.12,1.81,8.33,8.33,0,0,0-1.32,2.65A11,11,0,0,0,155,123.46Z"/>
      <path d="M175.82,138.94l1,.15a6.27,6.27,0,0,0,1,.08,2.15,2.15,0,0,0,1.58-.62,5.12,5.12,0,0,0,1-1.48,12.22,12.22,0,0,0,.67-1.81,8.49,8.49,0,0,1,.62-1.6l-7.74-20.1h2.58l6.39,17.14,6.39-17.14h2.5l-7.43,19.68c-.46,1.25-.9,2.38-1.33,3.39a15.54,15.54,0,0,1-1.34,2.56,5.65,5.65,0,0,1-1.58,1.61,3.68,3.68,0,0,1-2.06.56,7.54,7.54,0,0,1-1.18-.08,8.86,8.86,0,0,1-1-.19Z"/>
      <path d="M207.36,125.23a8.17,8.17,0,0,0,.82,3.14,6.2,6.2,0,0,0,1.74,2.1,6.91,6.91,0,0,0,2.44,1.17,11.73,11.73,0,0,0,3,.37,9.79,9.79,0,0,0,3.19-.47,5.81,5.81,0,0,0,2.19-1.25,4.78,4.78,0,0,0,1.26-1.83,6,6,0,0,0,.4-2.19,4.32,4.32,0,0,0-.73-2.62,5.62,5.62,0,0,0-1.91-1.63,11.5,11.5,0,0,0-2.69-1l-3.12-.75c-1.07-.24-2.11-.53-3.12-.86a9.83,9.83,0,0,1-2.69-1.35,6.46,6.46,0,0,1-1.91-2.17,6.92,6.92,0,0,1-.73-3.37,6.86,6.86,0,0,1,2.37-5.16,8.53,8.53,0,0,1,2.94-1.66,12.42,12.42,0,0,1,4.08-.61,11.61,11.61,0,0,1,4.1.65,8.15,8.15,0,0,1,2.91,1.79,7.34,7.34,0,0,1,1.73,2.64,8.69,8.69,0,0,1,.58,3.19h-2.5a6.24,6.24,0,0,0-.56-2.73,5.15,5.15,0,0,0-1.52-1.89,6.63,6.63,0,0,0-2.2-1.07,10,10,0,0,0-5.91.21,5.88,5.88,0,0,0-2.17,1.44,5,5,0,0,0-1.12,2,4.79,4.79,0,0,0-.11,2.16,3.77,3.77,0,0,0,1.07,2.16,6.94,6.94,0,0,0,2.08,1.33,16.7,16.7,0,0,0,2.72.84c1,.22,2,.45,3,.7a30.3,30.3,0,0,1,3,.86,8.79,8.79,0,0,1,2.56,1.35,6.14,6.14,0,0,1,1.79,2.17,7.34,7.34,0,0,1,.68,3.33,7.2,7.2,0,0,1-2.66,6q-2.66,2.12-7.47,2.12a13.81,13.81,0,0,1-4-.56,9,9,0,0,1-3.2-1.69,7.93,7.93,0,0,1-2.09-2.81,9.47,9.47,0,0,1-.76-4Z"/>
      <path d="M243.58,119.84a6.67,6.67,0,0,0-2.11-3.48,5.77,5.77,0,0,0-3.82-1.26,6,6,0,0,0-3,.74,6.13,6.13,0,0,0-2.08,1.94,9.09,9.09,0,0,0-1.19,2.73,12.33,12.33,0,0,0-.38,3.06,13.11,13.11,0,0,0,.36,3.08,8.13,8.13,0,0,0,1.18,2.7,6,6,0,0,0,2.07,1.91,6.29,6.29,0,0,0,3.08.71,5.9,5.9,0,0,0,4.14-1.43,6.68,6.68,0,0,0,2-3.92h2.46a11.76,11.76,0,0,1-1,3,8.18,8.18,0,0,1-1.73,2.35,7.56,7.56,0,0,1-2.53,1.52,10.78,10.78,0,0,1-7.47-.27,7.73,7.73,0,0,1-2.84-2.22,9.14,9.14,0,0,1-1.66-3.33,15.14,15.14,0,0,1-.54-4.12,13.19,13.19,0,0,1,.6-4,10.49,10.49,0,0,1,1.75-3.37,8.4,8.4,0,0,1,6.81-3.2,9,9,0,0,1,5.61,1.66,7.68,7.68,0,0,1,2.67,5.16Z"/>
      <path d="M260,121.88c.44,0,1-.13,1.56-.23a5.73,5.73,0,0,0,1.48-.42,1.24,1.24,0,0,0,.72-.91,5.58,5.58,0,0,0,.13-1.17,4,4,0,0,0-1.13-2.91A5.3,5.3,0,0,0,259,115.1a10.72,10.72,0,0,0-2.2.22,4.67,4.67,0,0,0-1.75.73,4,4,0,0,0-1.23,1.38,5.9,5.9,0,0,0-.64,2.18h-2.35a7.18,7.18,0,0,1,.81-3,6,6,0,0,1,1.79-2,7.48,7.48,0,0,1,2.54-1.16A12.64,12.64,0,0,1,259,113a12.2,12.2,0,0,1,2.83.33,6.61,6.61,0,0,1,2.31,1,4.78,4.78,0,0,1,1.54,1.91,6.73,6.73,0,0,1,.56,2.92v10.86q0,1.35.48,1.71c.32.25,1,.19,1.95-.17v1.81l-.79.23a3.71,3.71,0,0,1-1,.15,4.42,4.42,0,0,1-1-.11,1.71,1.71,0,0,1-.93-.37,2.18,2.18,0,0,1-.55-.69,2.61,2.61,0,0,1-.29-.88,6.63,6.63,0,0,1-.08-1,9.76,9.76,0,0,1-7.43,3.32,9.18,9.18,0,0,1-2.52-.35,6.09,6.09,0,0,1-2.14-1.08,5.21,5.21,0,0,1-2-4.31q0-5.09,7-6Zm3.89,1.16a10.94,10.94,0,0,1-3,.8c-1,.13-2,.23-3,.31a8.47,8.47,0,0,0-4.14,1.2,3.43,3.43,0,0,0-1.48,3,3.2,3.2,0,0,0,.37,1.59,3.26,3.26,0,0,0,1,1.12,4.16,4.16,0,0,0,1.39.66,6.15,6.15,0,0,0,1.59.21,10.52,10.52,0,0,0,2.7-.35,7.19,7.19,0,0,0,2.33-1.06,5.35,5.35,0,0,0,1.63-1.81,5.13,5.13,0,0,0,.62-2.6Z"/>
      <path d="M274.58,133.51h-2.31V113.56h2.31v2.78a14.4,14.4,0,0,1,2.86-2.39A6.59,6.59,0,0,1,281,113a9.13,9.13,0,0,1,3.42.64,5.86,5.86,0,0,1,2.66,2.21,5.08,5.08,0,0,1,.87,2.22,22.44,22.44,0,0,1,.13,2.37v13h-2.31v-13a6,6,0,0,0-1.19-4,5.08,5.08,0,0,0-4-1.35,5.56,5.56,0,0,0-2,.33,6.16,6.16,0,0,0-1.6.87,5.64,5.64,0,0,0-1.21,1.23,5.54,5.54,0,0,0-.77,1.46,7.35,7.35,0,0,0-.43,1.85c0,.59-.07,1.23-.07,1.93Z"/>
      <path d="M309.07,105.79h2.31v27.72h-2.31V130H309a6.51,6.51,0,0,1-1.29,1.76A8.16,8.16,0,0,1,306,133a9.45,9.45,0,0,1-1.94.77,7.52,7.52,0,0,1-2,.27,9.49,9.49,0,0,1-4.12-.81,7.76,7.76,0,0,1-2.8-2.22,8.88,8.88,0,0,1-1.59-3.33,16,16,0,0,1-.5-4.12,14.74,14.74,0,0,1,.54-4,9.79,9.79,0,0,1,1.63-3.37,8.2,8.2,0,0,1,2.77-2.31A8.49,8.49,0,0,1,302,113a9.2,9.2,0,0,1,4.06,1,7.12,7.12,0,0,1,3.06,2.79Zm0,17.67a11,11,0,0,0-.46-3.22,8.35,8.35,0,0,0-1.33-2.65,6.38,6.38,0,0,0-2.12-1.81,5.83,5.83,0,0,0-2.83-.68,6.35,6.35,0,0,0-3.11.72,6,6,0,0,0-2.16,1.94,8.37,8.37,0,0,0-1.23,2.87,12.94,12.94,0,0,0-.31,3.52,9.7,9.7,0,0,0,.52,3.33,7.32,7.32,0,0,0,1.44,2.45,6.38,6.38,0,0,0,2.16,1.52,7,7,0,0,0,2.69.52,6.18,6.18,0,0,0,2.89-.66,5.92,5.92,0,0,0,2.12-1.79,8.3,8.3,0,0,0,1.29-2.69A12.48,12.48,0,0,0,309.07,123.46Z"/>
      <path d="M317.43,109.21v-3.42H320v3.42Zm.11,24.3V113.56h2.31v19.95Z"/>
      <path d="M328.05,133.51h-2.31V113.56h2.31v2.78a14.45,14.45,0,0,1,2.87-2.39,6.58,6.58,0,0,1,3.56-.93,9.18,9.18,0,0,1,3.43.64,5.86,5.86,0,0,1,2.66,2.21,5.06,5.06,0,0,1,.86,2.22,20,20,0,0,1,.14,2.37v13h-2.31v-13a5.93,5.93,0,0,0-1.2-4,5,5,0,0,0-4-1.35,5.62,5.62,0,0,0-2,.33,6.1,6.1,0,0,0-1.59.87,5.92,5.92,0,0,0-1.22,1.23,5.85,5.85,0,0,0-.77,1.46,7.32,7.32,0,0,0-.42,1.85c-.05.59-.08,1.23-.08,1.93Z"/>
      <path d="M356.31,121.88c.44,0,1-.13,1.56-.23a5.73,5.73,0,0,0,1.48-.42,1.24,1.24,0,0,0,.72-.91,5.58,5.58,0,0,0,.13-1.17,3.94,3.94,0,0,0-1.14-2.91,5.27,5.27,0,0,0-3.83-1.14,10.69,10.69,0,0,0-2.19.22,4.67,4.67,0,0,0-1.75.73,4,4,0,0,0-1.23,1.38,5.72,5.72,0,0,0-.64,2.18h-2.35a7.18,7.18,0,0,1,.81-3,6,6,0,0,1,1.79-2,7.48,7.48,0,0,1,2.54-1.16,12.57,12.57,0,0,1,3.06-.37,12.2,12.2,0,0,1,2.83.33,6.61,6.61,0,0,1,2.31,1A4.78,4.78,0,0,1,362,116.3a6.88,6.88,0,0,1,.56,2.92v10.86q0,1.35.48,1.71c.32.25,1,.19,1.95-.17v1.81l-.79.23a3.71,3.71,0,0,1-1,.15,4.42,4.42,0,0,1-1-.11,1.71,1.71,0,0,1-.93-.37,2.36,2.36,0,0,1-.56-.69,2.83,2.83,0,0,1-.28-.88,5.59,5.59,0,0,1-.08-1,9.76,9.76,0,0,1-7.43,3.32,9.13,9.13,0,0,1-2.52-.35,6.09,6.09,0,0,1-2.14-1.08,5.29,5.29,0,0,1-1.46-1.79,5.45,5.45,0,0,1-.54-2.52q0-5.09,7-6ZM360.2,123a11,11,0,0,1-3,.8c-1,.13-2,.23-3,.31a8.47,8.47,0,0,0-4.14,1.2,3.43,3.43,0,0,0-1.48,3A3.2,3.2,0,0,0,349,130a3.26,3.26,0,0,0,1,1.12,4.16,4.16,0,0,0,1.39.66,6.09,6.09,0,0,0,1.59.21,10.52,10.52,0,0,0,2.7-.35,7.19,7.19,0,0,0,2.33-1.06,5.35,5.35,0,0,0,1.63-1.81,5.13,5.13,0,0,0,.62-2.6Z"/>
      <path d="M366.44,113.56h2.5l6.47,17.1,6.47-17.1h2.5l-7.74,19.95h-2.58Z"/>
      <path d="M388,109.21v-3.42h2.54v3.42Zm.11,24.3V113.56h2.31v19.95Z"/>
      <path d="M405.51,121.88c.44,0,1-.13,1.56-.23a5.82,5.82,0,0,0,1.49-.42,1.25,1.25,0,0,0,.71-.91,5.58,5.58,0,0,0,.13-1.17,4,4,0,0,0-1.13-2.91,5.3,5.3,0,0,0-3.83-1.14,10.72,10.72,0,0,0-2.2.22,4.74,4.74,0,0,0-1.75.73,4,4,0,0,0-1.23,1.38,6.1,6.1,0,0,0-.64,2.18h-2.34a7,7,0,0,1,.8-3,6.11,6.11,0,0,1,1.79-2,7.57,7.57,0,0,1,2.54-1.16,12.72,12.72,0,0,1,3.07-.37,12.26,12.26,0,0,1,2.83.33,6.78,6.78,0,0,1,2.31,1,5,5,0,0,1,1.54,1.91,6.89,6.89,0,0,1,.55,2.92v10.86c0,.9.16,1.47.49,1.71s1,.19,1.94-.17v1.81l-.79.23a3.71,3.71,0,0,1-1,.15,4.42,4.42,0,0,1-1-.11,1.71,1.71,0,0,1-.92-.37,2.08,2.08,0,0,1-.56-.69,2.85,2.85,0,0,1-.29-.88,6.63,6.63,0,0,1-.08-1,9.76,9.76,0,0,1-7.43,3.32,9.18,9.18,0,0,1-2.52-.35,6.09,6.09,0,0,1-2.14-1.08,5.21,5.21,0,0,1-2-4.31q0-5.09,7-6ZM409.4,123a10.94,10.94,0,0,1-3,.8c-1,.13-2,.23-3,.31a8.43,8.43,0,0,0-4.14,1.2,3.4,3.4,0,0,0-1.48,3,3.3,3.3,0,0,0,.36,1.59,3.37,3.37,0,0,0,1,1.12,4.16,4.16,0,0,0,1.39.66,6.16,6.16,0,0,0,1.6.21,10.5,10.5,0,0,0,2.69-.35,7.19,7.19,0,0,0,2.33-1.06,5.38,5.38,0,0,0,1.64-1.81,5.23,5.23,0,0,0,.61-2.6Z"/>
    </g>
  </g>
</svg>
