<svg xmlns="http://www.w3.org/2000/svg" viewBox="0 0 206 40" width="206" height="40" fill="#2957a4">
<path d="M59.53 0H0v39.69h59.53V0z"/>
<path d="M83.71 16.77v5.54H70.99v6.22h13.26v5.55H65.17V5.68h19.08v5.67H70.99v5.42h12.72z"/>
<path d="M104.89 34.08 93.21 15.2v18.88h-5.82V5.68h6.95l11.68 19.13V5.68h5.82v28.4h-6.95z"/>
<path d="M133.68 16.77v5.54h-12.72v6.22h13.27v5.55h-19.09V5.68h19.09v5.67h-13.27v5.42h12.72z"/>
<path d="M137.24 34.08V5.68h13.39a15.21 15.21 0 0 1 4 .46 6.43 6.43 0 0 1 2.76 1.5A6.24 6.24 0 0 1 159 10.4a14.52 14.52 0 0 1 .52 4.17 19.47 19.47 0 0 1-.17 2.58 14.62 14.62 0 0 1-.46 2.2 4.27 4.27 0 0 1-1.34 1.9 5.56 5.56 0 0 1 1.23 2.12 8.79 8.79 0 0 1 .4 2.71v8h-6v-7.37a2.67 2.67 0 0 0-.75-2.2 3.87 3.87 0 0 0-2.39-.59h-7v10.16h-5.86Zm5.86-15.66h6.57a10.19 10.19 0 0 0 2.05-.17 3.47 3.47 0 0 0 1.17-.42q.63-.51.63-2.58a8.2 8.2 0 0 0-.38-3.09c-.25-.56-1.07-.85-2.47-.85h-7.57v7.11Z"/>
<path d="M172.44 18.42H186c.14 1.07.21 1.87.23 2.39s0 1 0 1.38v2.33a17.16 17.16 0 0 1-.92 5.84 5 5 0 0 1-1.95 2.52 8.55 8.55 0 0 1-3.71 1.21q-1.26.13-2.59.17h-2.68q-6.7 0-9.21-2.16-2.72-2.24-2.72-8.84v-6.91q0-5.5 2.22-8.13a7.08 7.08 0 0 1 3.2-2 15.22 15.22 0 0 1 4.8-.68h6.03q4.1.13 5.75 2.22a9.41 9.41 0 0 1 1.65 5.95v2.5h-5.86a12.51 12.51 0 0 0-.46-4.44q-.21-.42-1.75-.51-1.3-.08-2.53-.11h-2.57q-3.22 0-3.81.68t-.67 4.7v6.85c0 .73 0 1.43.08 2.07a10.55 10.55 0 0 0 .29 1.78v-.08a2.18 2.18 0 0 0 .67.83 2.82 2.82 0 0 0 1.34.49 12.56 12.56 0 0 0 1.72.13h3.49a21 21 0 0 0 2.37-.11 2.08 2.08 0 0 0 1.23-.44c.39-.34.59-1.47.59-3.39V24h-7.91v-5.58Z"/>
<path d="m198.12 13.72 7.03-1.16-10.07 21.99 3.04-15.94-6.74.29 2.84-13.35h6.46l-2.56 8.17z"/>
<g fill="#fff212">
	<path d="m30.81 6.94.65 2.05-1.66-1.26-1.67 1.26.66-2.05-1.68-1.3h2.06l.63-2 .61 2h2.07l-1.67 1.3z"/>
	<path d="m30.89 33.36.65 1.97-1.67-1.21-1.66 1.21.65-1.97-1.68-1.25h2.07l.62-1.93.61 1.93h2.08l-1.67 1.25z"/>
	<path d="m37.46 31.6.64 1.98-1.66-1.22-1.66 1.22.65-1.98-1.68-1.24h2.07l.62-1.93.61 1.93h2.08l-1.67 1.24z"/>
	<path d="m37.46 8.65.64 1.98-1.66-1.22-1.66 1.22.65-1.98-1.68-1.24h2.07l.62-1.93.61 1.93h2.08l-1.67 1.24z"/>
	<path d="m42.33 13.51.65 1.98-1.67-1.22-1.65 1.22.65-1.98-1.68-1.24h2.06l.62-1.93.62 1.93H44l-1.67 1.24z"/>
	<path d="m42.33 26.81.65 1.98-1.67-1.22-1.65 1.22.65-1.98-1.68-1.25h2.06l.62-1.93.62 1.93H44l-1.67 1.25z"/>
	<path d="m44.16 20.06.65 1.98-1.66-1.22-1.67 1.22.66-1.98-1.69-1.25h2.07l.63-1.92.61 1.92h2.07l-1.67 1.25z"/>
	<path d="m24.11 8.67.65 1.98-1.66-1.22-1.66 1.22.65-1.98-1.68-1.25h2.06l.63-1.92.61 1.92h2.07l-1.67 1.25z"/>
	<path d="m19.38 13.53.64 1.98-1.66-1.22-1.66 1.22.65-1.98-1.68-1.25h2.06l.63-1.93.61 1.93h2.07l-1.66 1.25z"/>
	<path d="m17.61 20.08.65 1.98-1.66-1.22-1.66 1.22.65-1.98-1.68-1.25h2.06l.63-1.93.61 1.93h2.07l-1.67 1.25z"/>
	<path d="m19.38 26.83.64 1.98-1.66-1.22-1.66 1.22.65-1.98-1.68-1.25h2.06l.63-1.93.61 1.93h2.07l-1.66 1.25z"/>
	<path d="m24.18 31.62.65 1.98-1.66-1.22-1.66 1.22.65-1.98-1.68-1.25h2.06l.63-1.93.61 1.93h2.07l-1.67 1.25z"/>
</g>
</svg>