<svg xmlns="http://www.w3.org/2000/svg" xmlns:xlink="http://www.w3.org/1999/xlink" width="210" height="80" viewBox="0 0 210 80">
<path fill="#dc1e38" d="M67.39 1.08h9.08l15.05 40.26h-9.19l-3-9h-15.1l-3.16 9h-9zm-.84 24.7H77L71.9 11h-.11zM101.67 28c0 5.36 4.17 7.44 8.91 7.44 3.1 0 7.84-.9 7.84-5 0-4.34-6-5.07-12-6.65s-12-3.89-12-11.45c0-8.23 7.78-12.18 15.05-12.18 8.4 0 16.13 3.67 16.13 13h-8.57c-.28-4.85-3.72-6.09-8-6.09C106.3 7 103 8.19 103 11.57c0 3.1 1.92 3.5 12 6.09 2.93.73 12 2.59 12 11.73 0 7.39-5.81 12.91-16.75 12.91-8.92 0-17.25-4.4-17.15-14.3h8.57zM133.8 1.08h8.86v16.69l15.73-16.69h11.05l-15.73 15.9 17.25 24.36h-11.11l-12.12-18.1-5.07 5.13v12.97h-8.86V1.08z"/>
<path fill="#dc1e38" d="M190.21.12C202.67.12 210 9.43 210 21.38c0 11.62-7.33 20.92-19.79 20.92s-19.79-9.3-19.79-20.92c0-11.95 7.33-21.26 19.79-21.26zm0 34.73c7.95 0 10.94-6.77 10.94-13.48 0-7-3-13.81-10.94-13.81s-10.94 6.77-10.94 13.81c0 6.72 2.99 13.49 10.94 13.49zM42.36 0v31.76s0 10.67-10.58 10.67V26.55H10.59v5.28h15.87s0 10.59-10.62 10.59H0v-16c0-10.54 10.59-10.54 10.59-10.54h15.87c5.29 0 5.28-5.23 5.28-5.23H0S0 0 10.59 0z"/>
<text font="18px" font-famely="Arial" color="#323232" >ФИРМЕННЫЙ МАГАЗИН</text>
</svg>