<?xml version="1.0" encoding="utf-8"?><!DOCTYPE svg PUBLIC "-//W3C//DTD SVG 1.1//EN" "http://www.w3.org/Graphics/SVG/1.1/DTD/svg11.dtd"><svg width="230" height="140" viewBox="0 0 230 140" xmlns="http://www.w3.org/2000/svg" xmlns:xlink="http://www.w3.org/1999/xlink"><view id="cart" viewBox="0 100 40 40"/><svg width="40" height="40" viewBox="-10 -46 532 532" y="100" xmlns="http://www.w3.org/2000/svg"><path d="M256 219.988c5.52 0 10-4.48 10-10s-4.48-10-10-10-10 4.48-10 10 4.48 10 10 10zm0 0"/><path d="M472 139.988h-59.137L321.895 14.836c-8.172-14.004-26.172-18.988-40.47-11.07-14.491 8.05-19.702 26.304-11.648 40.8.23.41.485.805.77 1.18l71.351 94.242H170.102l71.351-94.242c.281-.375.54-.77.77-1.18 8.035-14.46 2.882-32.73-11.66-40.808-14.266-7.903-32.266-2.922-40.454 11.07l-90.972 125.16H40c-22.055 0-40 17.946-40 40 0 17.395 11.29 32.54 27.191 37.899a9.956 9.956 0 0 0 6.118 2.101c.46 0 .894.028 1.347.09a9.971 9.971 0 0 1 8.496 8.117l34.02 187.164c2.598 14.27 15.012 24.63 29.52 24.63h298.617c14.507 0 26.921-10.36 29.52-24.634L468.847 228.2a9.976 9.976 0 0 1 8.515-8.12c.438-.063.871-.09 1.328-.09 2.32 0 4.454-.798 6.149-2.126 15.914-5.394 27.16-20.511 27.16-37.875 0-22.054-17.945-40-40-40zM286.988 34.328c-2.285-4.73-.511-10.492 4.137-13.07 4.84-2.684 10.941-.953 13.61 3.855.195.36.417.703.656 1.032l82.746 113.843H366.98zm-80.379-8.18c.239-.328.454-.668.653-1.02 2.676-4.812 8.781-6.546 13.601-3.878 4.657 2.586 6.438 8.34 4.149 13.078l-79.992 105.66h-21.157zM472 199.988H296c-5.523 0-10 4.477-10 10 0 5.524 4.477 9.899 10 9.899h154.398a30.359 30.359 0 0 0-1.226 4.633l-34.024 187.257a9.995 9.995 0 0 1-9.84 8.211H106.692a10 10 0 0 1-9.843-8.207l-34.02-187.164a30.19 30.19 0 0 0-1.226-4.629H216c5.523 0 10-4.476 10-10 0-5.523-4.477-10-10-10H40c-11.121 0-20-9.062-20-20 0-11.027 8.973-20 20-20h432c11.027 0 20 8.973 20 20 0 11.106-9.086 20-20 20zm0 0"/><path d="M256 249.988c-16.543 0-30 13.457-30 30v80c0 16.543 13.457 30 30 30s30-13.457 30-30v-80c0-16.574-13.426-30-30-30zm10 110c0 5.516-4.484 10-10 10s-10-4.484-10-10v-80c0-5.515 4.484-10 10-10 5.52 0 10 4.48 10 10zm0 0M356 389.988c16.543 0 30-13.457 30-30v-80c0-16.574-13.426-30-30-30-16.543 0-30 13.457-30 30v80c0 16.543 13.457 30 30 30zm-10-110c0-5.515 4.484-10 10-10 5.52 0 10 4.48 10 10v80c0 5.516-4.484 10-10 10s-10-4.484-10-10zm0 0M156 249.988c-16.543 0-30 13.457-30 30v80c0 16.543 13.457 30 30 30s30-13.457 30-30v-80c0-16.574-13.426-30-30-30zm10 110c0 5.516-4.484 10-10 10s-10-4.484-10-10v-80c0-5.515 4.484-10 10-10 5.52 0 10 4.477 10 10zm0 0"/></svg><view id="logo" viewBox="0 0 230 100"/><svg width="230" height="100" viewBox="-10 -10 230 100" xmlns="http://www.w3.org/2000/svg"><path fill="#dc1e38" d="M67.39 1.08h9.08l15.05 40.26h-9.19l-3-9h-15.1l-3.16 9h-9zm-.84 24.7H77L71.9 11h-.11zM101.67 28c0 5.36 4.17 7.44 8.91 7.44 3.1 0 7.84-.9 7.84-5 0-4.34-6-5.07-12-6.65s-12-3.89-12-11.45c0-8.23 7.78-12.18 15.05-12.18 8.4 0 16.13 3.67 16.13 13h-8.57c-.28-4.85-3.72-6.09-8-6.09C106.3 7 103 8.19 103 11.57c0 3.1 1.92 3.5 12 6.09 2.93.73 12 2.59 12 11.73 0 7.39-5.81 12.91-16.75 12.91-8.92 0-17.25-4.4-17.15-14.3h8.57zM133.8 1.08h8.86v16.69l15.73-16.69h11.05l-15.73 15.9 17.25 24.36h-11.11l-12.12-18.1-5.07 5.13v12.97h-8.86V1.08z"/><path fill="#dc1e38" d="M190.21.12C202.67.12 210 9.43 210 21.38c0 11.62-7.33 20.92-19.79 20.92s-19.79-9.3-19.79-20.92c0-11.95 7.33-21.26 19.79-21.26zm0 34.73c7.95 0 10.94-6.77 10.94-13.48 0-7-3-13.81-10.94-13.81s-10.94 6.77-10.94 13.81c0 6.72 2.99 13.49 10.94 13.49zM42.36 0v31.76s0 10.67-10.58 10.67V26.55H10.59v5.28h15.87s0 10.59-10.62 10.59H0v-16c0-10.54 10.59-10.54 10.59-10.54h15.87c5.29 0 5.28-5.23 5.28-5.23H0S0 0 10.59 0z"/></svg><view id="phone" viewBox="40 100 36 36"/><svg width="36" height="36" viewBox="-10 -10 50 50" x="40" y="100" xmlns="http://www.w3.org/2000/svg"><path d="M23.895 29.731c-1.237 0-2.731-.31-4.374-.93-3.602-1.358-7.521-4.042-11.035-7.556C4.971 17.73 2.287 13.81.928 10.208-.307 6.933-.31 4.245.921 3.015c.177-.177.357-.367.543-.563C2.587 1.271 3.856-.058 5.538.002 6.697.05 7.82.77 8.97 2.201c3.398 4.226 1.866 5.732.093 7.478l-.313.31c-.29.29-.838 1.633 4.26 6.731 1.664 1.664 3.083 2.882 4.217 3.619.714.464 1.991 1.166 2.515.642l.315-.318c1.744-1.769 3.25-3.296 7.473.099 1.431 1.15 2.15 2.272 2.198 3.433.069 1.681-1.27 2.953-2.452 4.075-.195.186-.385.366-.562.542-.611.612-1.588.919-2.819.919zM5.418 1C4.223 1 3.144 2.136 2.189 3.141c-.192.202-.378.398-.561.581-.917.916-.824 3.323.236 6.134 1.31 3.472 3.913 7.266 7.33 10.683 3.416 3.415 7.208 6.018 10.681 7.327 2.811 1.062 5.218 1.152 6.133.237.183-.183.379-.369.581-.56 1.027-.976 2.192-2.082 2.141-3.309-.035-.843-.649-1.75-1.825-2.695-3.519-2.83-4.503-1.831-6.135-.176l-.32.323c-.78.781-2.047.608-3.767-.51-1.193-.776-2.667-2.038-4.379-3.751-4.231-4.23-5.584-6.819-4.26-8.146l.319-.315c1.659-1.632 2.66-2.617-.171-6.138-.947-1.175-1.853-1.789-2.696-1.825L5.418 1z"/></svg><view id="search" viewBox="76 100 30 30"/><svg width="30" height="30" viewBox="-10 -10 505.21 505.21" x="76" y="100" xmlns="http://www.w3.org/2000/svg"><path d="M363.909 181.955C363.909 81.473 282.44 0 181.956 0 81.474 0 .001 81.473.001 181.955s81.473 181.951 181.955 181.951c100.484 0 181.953-81.469 181.953-181.951zM181.956 318.416c-75.252 0-136.465-61.208-136.465-136.46 0-75.252 61.213-136.465 136.465-136.465 75.25 0 136.468 61.213 136.468 136.465 0 75.252-61.218 136.46-136.468 136.46zM471.882 407.567L360.567 296.243a214.267 214.267 0 0 1-64.331 64.321L407.56 471.888c17.772 17.768 46.587 17.768 64.321 0 17.773-17.739 17.773-46.554.001-64.321z"/></svg></svg>