<svg xmlns="http://www.w3.org/2000/svg" width="160" height="56" viewBox="0 0 160 56">
	<path fill="#d50427" d="M51.34.82h6.92L69.73,31.5h-7l-2.29-6.86H48.94L46.53,31.5H39.67ZM50.7,19.64h8L54.78,8.38H54.7Zm26.76,1.69c0,4.08,3.18,5.67,6.79,5.67,2.36,0,6-.69,6-3.81,0-3.31-4.57-3.86-9.14-5.07s-9.14-3-9.14-8.72c0-6.27,5.93-9.28,11.47-9.28,6.4,0,12.29,2.8,12.29,9.9H89.14c-.21-3.7-2.83-4.64-6.1-4.64-2.08-.05-4.57.85-4.57,3.43,0,2.36,1.46,2.67,9.14,4.64,2.23.56,9.14,2,9.14,8.94,0,5.63-4.43,9.84-12.76,9.84-6.8,0-13.14-3.35-13.07-10.9ZM101.94.82h6.75V13.54l12-12.72h8.42L117.11,13,130.29,31.5h-8.5l-9.23-13.79-3.86,3.91v9.9h-6.75Z"/>
	<path fill="#d50427" d="M144.92.09C154.42.09,160,7.18,160,16.29c0,8.85-5.58,15.94-15.08,15.94s-15.08-7.09-15.08-15.94c0-9.1,5.58-16.2,15.08-16.2Zm0,26.46c6.06,0,8.34-5.16,8.34-10.27,0-5.33-2.29-10.52-8.34-10.52s-8.34,5.16-8.34,10.52c0,5.12,2.29,10.28,8.34,10.28ZM32.27,0V24.2s0,8.13-8.06,8.13V20.23H8.07v4H20.16s0,8.07-8.09,8.07H0V20.13c0-8,8.07-8,8.07-8H20.16c4,0,4-4,4-4H0S0,0,8.07,0Z"/>
	<text fill="#393939" x="80" y="52" text-anchor="middle" font-size="15" font-family="Arial, ArialMT, Roboto">Inspired by Scandinavia</text>
</svg>