<svg xmlns="http://www.w3.org/2000/svg" width="136" height="56" viewBox="0 0 136 56"><rect x="1" y="1" width="134" height="54" rx="3" ry="3" fill="white" stroke="#ffd426" stroke-miterlimit="10" stroke-width="2"/><path fill="#ffa300" d="M19.9,42.1l-4.2,2.6a.4.4,0,0,1-.6-.4l1.2-4.8-3.8-3.2a.4.4,0,0,1-.14-.55h0v0h.3l4.9-.3,1.8-4.6a.4.4,0,0,1,.5-.2l.2.2,1.8,4.6,4.9.3a.4.4,0,0,1,.4.4h0v.3l-3.8,3.2,1.2,4.8a.4.4,0,0,1-.28.49H24Z"/><path fill="#ffa300" d="M37.9,42.1l-4.2,2.6a.4.4,0,0,1-.6-.4l1.2-4.8-3.8-3.2a.4.4,0,0,1-.14-.55h0v0h.3l4.9-.3,1.8-4.6a.4.4,0,0,1,.5-.2l.2.2,1.8,4.6,4.9.3a.4.4,0,0,1,.4.4h0v.3l-3.8,3.2,1.2,4.8a.4.4,0,0,1-.28.49H42Z"/><path fill="#ffa300" d="M73.9,42.1l-4.2,2.6a.4.4,0,0,1-.6-.4l1.2-4.8-3.8-3.2a.4.4,0,0,1-.14-.55h0v0h.3l4.9-.3,1.8-4.6a.4.4,0,0,1,.5-.2l.2.2,1.8,4.6,4.9.3a.4.4,0,0,1,.4.4h0v.3l-3.8,3.2,1.2,4.8a.4.4,0,0,1-.28.49H78Z"/><path fill="#ffa300" d="M91.9,42.1l-4.2,2.6a.4.4,0,0,1-.6-.4l1.2-4.8-3.8-3.2a.4.4,0,0,1-.14-.55h0v0h.3l4.9-.3,1.8-4.6a.4.4,0,0,1,.5-.2l.2.2,1.8,4.6,4.9.3a.4.4,0,0,1,.4.4h0v.3l-3.8,3.2,1.2,4.8a.4.4,0,0,1-.28.49H96Z"/><path fill="#ffa300" d="M55.9,42.1l-4.2,2.6a.4.4,0,0,1-.6-.4l1.2-4.8-3.8-3.2a.4.4,0,0,1-.14-.55h0v0h.3l4.9-.3,1.8-4.6a.4.4,0,0,1,.5-.2l.2.2,1.8,4.6,4.9.3a.4.4,0,0,1,.4.4h0v.3l-3.8,3.2,1.2,4.8a.4.4,0,0,1-.28.49H60Z"/><path d="M12.6,13.1h4.2a2.7,2.7,0,0,1,2.9,3,2.9,2.9,0,0,1-2.79,3H14.6v3.4h-2Zm2,4.4h1.8a1.2,1.2,0,0,0,1.4-1.4,1.2,1.2,0,0,0-1.4-1.4H14.6Z"/><path d="M22.1,19.5a1.6,1.6,0,0,0,1.49,1.7h.11a1.2,1.2,0,0,0,1.2-.8h1.9a2.87,2.87,0,0,1-3.1,2.3c-2.1,0-3.3-1-3.3-3.7s1-3.6,3.3-3.6S27,17.1,27,19.6ZM25,18.3a1.4,1.4,0,1,0-2.8,0H25Z"/><path d="M28.1,15.5h1.8v4.3h0l2.5-4.3h1.9v6.9H32.5V18.2h0L30,22.4H28Zm5.2-2.9a1.84,1.84,0,0,1-2.1,1.9c-1.2,0-2.1-.5-2.1-1.9h.7c.1.6.7.9,1.4.9s1.3-.3,1.4-.9Z"/><path d="M37.5,17H35.4V15.5h6V17H39.3v5.5H37.5Z"/><path d="M42.5,15.5h1.8v4.3h0l2.5-4.3h1.9v6.9H47V18.2h0l-2.4,4.2h-2Z"/><path d="M50.5,15.5h1.8V18h2.6V15.5h1.8v6.9H54.9v-3H52.3v3H50.5Z"/><path d="M58.4,15.5h4.7V17H60.2v5.5H58.4Z"/><path d="M67.8,15.5h2.7l1.2,5h0l1.1-5h2.6v6.9H73.8V16.9h0l-1.3,5.6H70.8l-1.3-5.6h0v5.6H67.8Z"/><path d="M82.8,21.1c0,.8.2,1,.4,1.1v.3h-2a2,2,0,0,1-.2-.8,2.6,2.6,0,0,1-2.2,1,2,2,0,0,1-2.1-2.1,2.1,2.1,0,0,1,1.9-2.1l1.8-.3a.57.57,0,0,0,.6-.6c0-.5-.3-.8-1.1-.8a1.06,1.06,0,0,0-1.2.9H76.9c0-.5.4-2.4,3-2.4s2.9,1.1,2.9,2.1ZM81,19l-.8.3h-.5c-.8.2-1.2.4-1.2,1.1a.8.8,0,0,0,.69.9h.21A1.5,1.5,0,0,0,81,19.7Z"/><path d="M84.4,15.5h4.7V17H86.2v5.5H84.4Z"/><path d="M95.5,21.1c0,.8.2,1,.4,1.1v.3h-2a2,2,0,0,1-.2-.8,2.6,2.6,0,0,1-2.2,1,2,2,0,0,1-2.1-2.1,2.1,2.1,0,0,1,1.9-2.1l1.8-.3a.57.57,0,0,0,.6-.6c0-.5-.3-.8-1.1-.8a1.06,1.06,0,0,0-1.2.9H89.6c0-.5.4-2.4,3-2.4s2.9,1.1,2.9,2.1Zm-1.8-2-.8.3h-.5c-.8.2-1.2.4-1.2,1.1a.8.8,0,0,0,.69.9h.21a1.5,1.5,0,0,0,1.6-1.6Z"/><path d="M96.7,17.4a2.5,2.5,0,0,1,.6-1.3,3,3,0,0,1,2.3-.8c1.7,0,2.6,1,2.6,1.9a1.37,1.37,0,0,1-.9,1.4h0a1.7,1.7,0,0,1,1.1,1.7c0,1.5-1.5,2.2-2.9,2.2a2.92,2.92,0,0,1-3.1-2.4h1.7c.2.6.5,1.1,1.2,1.1a1,1,0,0,0,1.1-1c0-.7-.5-.9-1.1-.9H99V18.2h.4c.6,0,1.1-.3,1.1-.8s-.4-.8-1-.8a.9.9,0,0,0-1.1.8Z"/><path d="M103.6,15.5h1.8v4.3h0l2.5-4.3h1.9v6.9H108V18.2h0l-2.4,4.2h-2Z"/><path d="M111.6,15.5h1.8V18H116V15.5h1.8v6.9H116v-3h-2.6v3h-1.8Z"/><path d="M125.1,21.1c0,.8.2,1,.4,1.1v.3h-2a2,2,0,0,1-.2-.8,2.6,2.6,0,0,1-2.2,1,2,2,0,0,1-2.1-2.1,2.1,2.1,0,0,1,1.9-2.1l1.8-.3a.57.57,0,0,0,.6-.6c0-.5-.3-.8-1.1-.8a1.06,1.06,0,0,0-1.2.9h-1.8c0-.5.4-2.4,3-2.4s2.9,1.1,2.9,2.1Zm-1.8-2-.8.3H122c-.8.2-1.2.4-1.2,1.1a.8.8,0,0,0,.69.9h.21a1.5,1.5,0,0,0,1.6-1.6Z"/></svg>