<svg xmlns="http://www.w3.org/2000/svg" width="122" height="24" viewBox="0 0 122 24"><path fill="red" d="M7.4,1.8H6.3C4.6,1.8,3,2.9,3,6.2s1.5,4.1,3.3,4.1H7.4ZM5.7,12,2.4,19.5H0l3.6-8C1.9,10.6.8,9,.8,6.1S3.4,0,6.4,0H9.5V19.5H7.4V12Z"/><path fill="#222" d="M50,12.6c0-4.3,1.7-7.1,4.8-7.1a4.3,4.3,0,0,1,2.5.7l-.3,2a3.6,3.6,0,0,0-2.2-1c-1.5,0-2.6,1.7-2.6,5.2s.8,5.4,2.5,5.4A3.4,3.4,0,0,0,57,17l.5,1.6a4.1,4.1,0,0,1-2.8,1C51.8,19.7,50,17.3,50,12.6Zm-6.2,0v6.9H41.7V5.8h2.1v6.4l3.3-6.4h2.1l-3.4,6.5,3.9,7.3H47.5Zm-9.9-1.3h3.5c0-2.3-.4-4.1-1.6-4.1s-1.7,1.7-1.9,4.2Zm2.3,8.3c-2.8,0-4.6-2.3-4.6-6.5s1.2-7.6,4.1-7.6,3.8,1.7,3.8,6.4v1.2H33.9c0,3.1.9,4.8,2.5,4.8a4.7,4.7,0,0,0,2.7-.9l.5,1.6a5.4,5.4,0,0,1-3.4,1.1Zm-9-12.2H24.9v.2c0,2.9-.1,7.1-1.3,10h3.6Zm3.2,14.7H28.5V19.5H22.7v2.7H20.8V17.8h.8C22.8,14.9,23,10.6,23,7V5.8h6.3v12h1.1ZM19.6,5.8V19.5H17.5V13.3H14.3v6.2H12.2V5.8h2.1v5.8h3.1V5.8ZM66,5.8c-.3-1-.5-1.9-.7-2.8h-.1a27.15,27.15,0,0,1,.1,2.9V19.5H64.1V0h1.6L69,12.5a18.8,18.8,0,0,1,.4,2.3h.1a13.16,13.16,0,0,1,.5-2.3L73.3,0h1.5V19.5H73.4V5.8c0-.9.1-1.9.1-2.9h-.1l-.7,2.7L69.9,16.5H68.8ZM83.1,16.1V12.3H81.7c-2.3,0-3.3,1-3.3,3.4s.8,3.1,2.1,3.1,2.2-1.2,2.7-2.7m.1,1.6a3.3,3.3,0,0,1-3,2.1c-1.8,0-3.1-1.5-3.1-4a4.17,4.17,0,0,1,4.4-4.5h1.5V9.6c0-2.1-.8-3-2.3-3A3.4,3.4,0,0,0,78,8.1l-.4-1.2a4.1,4.1,0,0,1,3.2-1.4c2.2,0,3.5,1.3,3.5,4V17a10.2,10.2,0,0,0,.3,2.5H83.5a8.2,8.2,0,0,1-.3-1.9M94,12.3c0-3.6-1-5.7-2.5-5.7s-2.3,1.3-2.8,2.8v7.7a2.6,2.6,0,0,0,2.5,1.7c1.7,0,2.9-2.1,2.9-6.4m-5.4,6.2v5.2H87.4V5.8h1.1V8.1c.6-1.3,1.6-2.5,3.1-2.5s3.6,2.8,3.6,6.7-1.7,7.5-4.2,7.5a3.1,3.1,0,0,1-2.4-1.2m10.4,1H97.7V5.8H99v6.5l4.6-6.5h1.2l-4.5,6.4,4.8,7.4h-1.4L99,12.4Zm8-7.7h5c.2-3.7-.9-5.3-2.2-5.3s-2.6,1.9-2.7,5.3m3,6.8a3.5,3.5,0,0,0,2.8-1.5l.4,1a3.9,3.9,0,0,1-3.2,1.6c-2.9,0-4.2-2.6-4.2-7.2s1.7-7.2,4-7.2,3.9,2.5,3.4,7.4h-6.2c.1,3.8,1,5.8,3,5.8m8.8-11.9V19.5h-1.3V6.8h-3.2v-1H122V6.9Z"/></svg>